# xmcd CD database file
#
# Track frame offsets:
#	150
#	12450
#	26968
#	43352
#	69780
#	78027
#	95383
#	121474
#	142356
#	165212
#	192967
#	220293
#	234908
#	255293
#	279280
#
# Disc length: 3982 seconds
#
# Revision: 0
# Processed by: cddbd v1.5.2PL0 Copyright (c) Steve Scherf et al.
# Submitted via: CDex 1.51
#
DISCID=c80f8c0f
DTITLE=Bischheim Big Band - The heat's on
DYEAR=1900
DGENRE=Jazz
TTITLE0=The heat's on
TTITLE1=I've got you under my skin
TTITLE2=At last
TTITLE3=Spankly
TTITLE4=Everybody's boppin'
TTITLE5=Fontaine
TTITLE6=Down for the count
TTITLE7=Les feuilles mortes
TTITLE8=Grace
TTITLE9=Nostalgia in time Square
TTITLE10=I ain't got nothing but the blues
TTITLE11=Route 66
TTITLE12=Groovy encounter
TTITLE13=Lil darlin'
TTITLE14=Just a  gigolo
EXTD=
EXTT0=
EXTT1=
EXTT2=
EXTT3=
EXTT4=
EXTT5=
EXTT6=
EXTT7=
EXTT8=
EXTT9=
EXTT10=
EXTT11=
EXTT12=
EXTT13=
EXTT14=
PLAYORDER=
